# xmcd
#
# Track frame offsets:
# 150
# 3944
# 25103
# 86310
# 96301
# 103517
# 110186
# 114771
# 119400
# 133731
# 139394
# 148499
# 152992
# 164388
# 168471
# 177302
# 182290
# 189334
# 194488
# 211812
# 218784
# 225378
# 243734
# 247361
# 252302
# 263586
# 275189
# 285098
# 294930
# 305745
# 313065
# 316861
#
# Disc length: 4335 seconds
#
# Revision: 0
# Processed by: cddbd v1.5PL3 Copyright (c) Steve Scherf et al.
# Submitted via: Audion 3.0.2 (http://www.panic.com/audion/)
#
DISCID=da10ed20
DTITLE=BRITISH COUNCIL - PRACTISE YOUR PRON
DYEAR=1900
DGENRE=
TTITLE0=INTRODUCTION
TTITLE1=THE ALPHABET AND SPELLING
TTITLE2=THE PHONEMIC  SYMBOLS
TTITLE3=INTONATION - ASKING QUESTIONS
TTITLE4=YES -  NO QUESTIONS
TTITLE5=FIRST QUESTIONS - IN THE CAFE
TTITLE6=SOUNDING POLITE AND FRIENDLY
TTITLE7=SOUNDING POLITE AND FRIENDLY - PRACTICEACTISE
TTITLE8=SOUNDS - /V/ AND /b/
TTITLE9=DIALOGUE PRACTICE
TTITLE10=SOUNDS - /I/ AND /r/
TTITLE11=MAKING AN ANNOUNCEMENT
TTITLE12=SOUNDS - /t/ 
TTITLE13=DIALOGUE
TTITLE14=SOUNDS - /m/ AND /n/
TTITLE15=PHONE CONVERSATION - THE WRONG NUMBER
TTITLE16=SOUNDS - CLUSTERS
TTITLE17=CLUSTERS STORY
TTITLE18=WEAK SOUNDS - THE SCHWA
TTITLE19=LONG AND SHORT VOWELS
TTITLE20=DIALOGUE IN A CAFE
TTITLE21=WORDS ENDINGS
TTITLE22=STORY WITH PAST TENSE
TTITLE23=STORY WITH 'S' ENDINGS
TTITLE24=SYLLABES AND WORD STRESS
TTITLE25=STRESS IN NOUNS AND VERBS
TTITLE26=STRESS IN WORD ' FAMILIES'
TTITLE27=SENTENCE STRESS
TTITLE28=LINKING
TTITLE29=MAKING LINKS
TTITLE30=DIALOGUE PRACTICE WITH LINKING
TTITLE31=THE GORILLA JOKE
EXTD=
EXTT0=
EXTT1=
EXTT2=
EXTT3=
EXTT4=
EXTT5=
EXTT6=
EXTT7=
EXTT8=
EXTT9=
EXTT10=
EXTT11=
EXTT12=
EXTT13=
EXTT14=
EXTT15=
EXTT16=
EXTT17=
EXTT18=
EXTT19=
EXTT20=
EXTT21=
EXTT22=
EXTT23=
EXTT24=
EXTT25=
EXTT26=
EXTT27=
EXTT28=
EXTT29=
EXTT30=
EXTT31=
PLAYORDER=
